<svg width="128" height="128" viewBox="0 0 128 128" fill="none" xmlns="http://www.w3.org/2000/svg">
<path d="M109.77 15.68C112.344 15.68 114.43 13.5936 114.43 11.02C114.43 8.44634 112.344 6.35999 109.77 6.35999C107.196 6.35999 105.11 8.44634 105.11 11.02C105.11 13.5936 107.196 15.68 109.77 15.68Z" fill="#00EDCD"/>
<path opacity="0.75" d="M11.43 91.09L84.09 18.43C84.2 18.32 84.3 18.15 84.4 17.98C85.17 16.66 85.25 15.4 85.13 13.73C84.92 10.9 85.59 9.37 86.96 8.35C88.77 6.99 95.04 7.27 106.77 19C118.5 30.73 118.77 36.99 117.41 38.8C116.39 40.17 114.86 40.83 112.03 40.63C110.36 40.51 109.1 40.58 107.78 41.36C107.6 41.46 107.44 41.56 107.33 41.67L34.67 114.33C24.69 124.31 15.16 122.79 9.11 116.74L9.07 116.7L9.03 116.66C2.96 110.6 1.44 101.07 11.43 91.09V91.09Z" fill="#81D4FA"/>
<path opacity="0.39" d="M99.79 23.22C93.43 16.86 88.59 13.67 85.1 12.24C85.08 12.69 85.08 13.19 85.12 13.73C85.21 14.92 85.18 15.9 84.89 16.84C88.06 18.55 92.03 21.39 96.9 25.95C103.9 32.51 107.24 37.46 108.63 40.95C109.55 40.61 110.49 40.55 111.61 40.6C110.94 37.1 107.99 31.41 99.79 23.22V23.22Z" fill="#1D44B3"/>
<path d="M54.15 48.51L11.67 90.94C1.31 101.29 2.62 110.97 8.64 116.99C14.66 123 24.32 124.34 34.7 113.96L102 47.04L54.15 48.51Z" fill="#00BFA5"/>
<path d="M45.06 82.02C47.8546 82.02 50.12 79.7546 50.12 76.96C50.12 74.1655 47.8546 71.9 45.06 71.9C42.2654 71.9 40 74.1655 40 76.96C40 79.7546 42.2654 82.02 45.06 82.02Z" fill="#00937A"/>
<path d="M96.58 41.8C99.2089 41.8 101.34 39.6689 101.34 37.04C101.34 34.4112 99.2089 32.28 96.58 32.28C93.9511 32.28 91.82 34.4112 91.82 37.04C91.82 39.6689 93.9511 41.8 96.58 41.8Z" fill="#00BFA5"/>
<path opacity="0.69" d="M73.27 60.23C74.8882 60.23 76.2 58.9182 76.2 57.3C76.2 55.6818 74.8882 54.37 73.27 54.37C71.6518 54.37 70.34 55.6818 70.34 57.3C70.34 58.9182 71.6518 60.23 73.27 60.23Z" fill="white"/>
<path d="M121.84 14.18C123.038 14.18 124.01 13.2084 124.01 12.01C124.01 10.8115 123.038 9.83997 121.84 9.83997C120.642 9.83997 119.67 10.8115 119.67 12.01C119.67 13.2084 120.642 14.18 121.84 14.18Z" fill="#00BFA5"/>
<path d="M59.15 76.54C61.3591 76.54 63.15 74.7492 63.15 72.54C63.15 70.3309 61.3591 68.54 59.15 68.54C56.9409 68.54 55.15 70.3309 55.15 72.54C55.15 74.7492 56.9409 76.54 59.15 76.54Z" fill="#00EDCD"/>
<path d="M63.75 62.66C64.6005 62.66 65.29 61.9705 65.29 61.12C65.29 60.2694 64.6005 59.58 63.75 59.58C62.8995 59.58 62.21 60.2694 62.21 61.12C62.21 61.9705 62.8995 62.66 63.75 62.66Z" fill="#00EDCD"/>
<path opacity="0.6" d="M93.2 14.66C96.41 16.74 99.33 19.26 101.85 22.12" stroke="white" stroke-width="4.195" stroke-miterlimit="10" stroke-linecap="round"/>
<path d="M102.02 46.96C101.18 47.7 98.45 48.19 91.27 49.31C87.46 49.91 82.8 50.51 77.45 50.95C60.68 52.34 49.37 50.05 56.08 47.31C61.47 45.11 80.61 45.59 92.59 45.97C98.37 46.16 102.68 46.39 102.02 46.96V46.96Z" fill="#00EDCD"/>
<path opacity="0.6" d="M11.63 103.5C9.91 102.79 10.61 100.82 11.63 99.79L79.13 30.5C83.23 26.26 86.98 23.38 89.08 25.38C91.43 27.61 90.68 31.61 81.47 39.87L16.79 101.04C16.28 101.55 13.35 104.21 11.63 103.5V103.5Z" fill="white"/>
</svg>
