<svg width="128" height="128" viewBox="0 0 128 128" fill="none" xmlns="http://www.w3.org/2000/svg">
<path d="M88.03 32.06C88.63 31.69 89.41 31.84 89.81 32.42C91.91 35.46 97.5 45.59 95.38 64.89C94 77.42 86.9 95.51 84.49 101.37C84.4095 101.568 84.2821 101.743 84.119 101.881C83.9558 102.018 83.7617 102.115 83.5532 102.161C83.3448 102.207 83.1282 102.202 82.9221 102.146C82.716 102.09 82.5266 101.985 82.37 101.84C79.95 99.63 74.04 95.9 63.28 98.4C59.87 99.19 49.23 109.85 40.68 100.25C35.4 94.32 39.25 90.83 39.29 82.3C39.34 71.32 28.29 67.95 24.68 66.15C23.76 65.69 23.69 64.42 24.55 63.86C28.74 61.14 34.62 59.86 42.01 53.98C51.39 46.53 51.47 39.55 53.39 37.13C54.36 35.91 62 32.48 62 32.48C62 32.48 67.34 33.9 67.6 34L77.13 38.21C77.51 38.35 77.94 38.31 78.29 38.09L88.03 32.06V32.06Z" fill="url(#paint0_linear_18_183)"/>
<path d="M90.44 73.6901C95.85 56.9401 91.93 43.1801 91.93 43.1801C91.93 43.1801 76.05 48.7901 76.01 49.4401C75.98 50.0901 65.69 74.5501 65.69 74.5501C65.69 74.5501 58.2 94.8101 48.7 104.23C55.51 103.49 61.02 98.9201 63.28 98.4001C70.37 96.7501 75.34 97.8101 78.61 99.3601C80.4 96.5101 86.64 85.4701 90.44 73.6901Z" fill="url(#paint1_radial_18_183)"/>
<path d="M67.97 43.6199L62.9 41.3199C62.9 41.3199 54.86 59.6699 50.79 65.9999C46.71 72.3299 39.29 82.2999 39.29 82.2999C39.3 90.8299 35.39 94.3199 40.68 100.25C41.03 100.65 41.4 101 41.76 101.33C45.15 97.2599 50.75 89.3099 54.95 83.3499C66.3 67.2399 67.97 43.6199 67.97 43.6199Z" fill="url(#paint2_linear_18_183)"/>
<path d="M103.54 24.36C102.53 21.61 97.59 13.72 97.59 13.72L91.85 16.48L94.13 26.34L83.86 34.89C79.6138 33.9084 75.2212 33.732 70.91 34.37C67.97 34.15 59.61 34.25 56.45 41.94L51.87 52.84L48.16 54.13C47.13 56.28 50.51 58.22 52.66 59.24C54.81 60.26 56.66 59.47 58.42 57.2C59.47 55.84 61.91 52.03 63.69 49.2C64.09 52.23 64.37 55.93 64.39 60.43L72.72 64.44L82.86 64.87C86.56 56.5 88.47 50.13 89.44 45.62C92.79 41.84 101.47 32.02 102.59 30.46C103.97 28.54 104.55 27.11 103.54 24.36V24.36Z" fill="url(#paint3_linear_18_183)"/>
<path d="M41.61 38.6199C42.2 37.5399 44.05 36.7999 45.38 36.3899C46.19 36.1399 47.05 36.5599 47.37 37.3299L49.34 42.0499C49.58 42.6299 49.47 43.2999 49.05 43.7799L47.2 45.8599C47.88 46.7799 48.73 47.5199 49.71 48.1099C51.38 49.1199 53.05 49.0799 53.22 49.2199C55.34 50.9299 56.92 52.9299 55.68 56.2099C54.45 59.4699 50.21 58.4699 50.21 58.4699C50.21 58.4699 45.86 55.4099 43.06 48.7699C42.15 46.6399 40.38 40.8599 41.61 38.6199Z" fill="url(#paint4_linear_18_183)"/>
<path d="M52.68 82.8499C52.68 82.8499 47.14 87.9999 46.73 90.3099C46.05 94.1399 49.29 97.6799 50.97 96.3099C54.62 93.3499 55.61 89.6799 57.42 87.0199C59.22 84.3599 55.08 80.4199 52.68 82.8499V82.8499Z" fill="url(#paint5_linear_18_183)"/>
<path d="M71.4 66.7699L71.15 67.4499C70.7 65.7899 69.64 64.2699 68.2 63.4999C68.2 63.4999 62.42 61.5899 60.97 64.2799C60.97 64.2799 54.04 75.1999 52.94 78.2399C51.83 81.2799 51.87 83.7599 54.47 85.3699C56.57 86.6599 59.39 86.0399 61.97 83.1099C63.13 81.7899 65.81 77.7599 67.85 74.6299C68.17 74.1299 68.94 74.5199 68.73 75.0799L56.61 106.99L62.02 110.43C62.02 110.43 78.12 84.6999 80.49 79.7799C82.86 74.8599 83.7 67.6399 83.7 67.6399L71.4 66.7699V66.7699Z" fill="url(#paint6_linear_18_183)"/>
<path opacity="0.4" d="M61.24 63.8901L63.24 60.6301C63.52 60.0001 64.24 59.7401 64.82 60.0701C71.44 63.8501 74.96 64.8601 82.49 64.4101C83.18 64.3701 83.75 64.9901 83.7 65.7401L83.44 69.2501C83.44 69.2501 80.68 70.8101 72.25 69.0201C66.27 67.7501 61.24 63.8901 61.24 63.8901V63.8901Z" fill="#212121"/>
<path d="M83.08 68.94C74.6 69.39 69.29 67.86 61.89 63.93C61.31 63.62 61.08 62.91 61.36 62.31L62.55 59.79C62.85 59.16 63.62 58.9 64.24 59.23C71.33 63.01 75.1 64.01 83.18 63.57C83.92 63.53 84.54 64.16 84.47 64.9L84.24 67.8C84.19 68.42 83.69 68.91 83.08 68.94Z" fill="url(#paint7_linear_18_183)"/>
<path d="M75.57 66.99L73.26 68.52C72.8 68.82 72.19 68.7 71.89 68.24L70.36 65.93C70.2879 65.8218 70.238 65.7004 70.2131 65.5728C70.1881 65.4453 70.1887 65.314 70.2147 65.1867C70.2408 65.0593 70.2917 64.9384 70.3647 64.8308C70.4377 64.7232 70.5313 64.6312 70.64 64.56L72.95 63.03C73.0582 62.9579 73.1796 62.908 73.3071 62.883C73.4347 62.8581 73.566 62.8587 73.6933 62.8847C73.8207 62.9107 73.9416 62.9617 74.0492 63.0347C74.1567 63.1077 74.2488 63.2012 74.32 63.31L75.85 65.62C76.15 66.07 76.03 66.68 75.57 66.99Z" fill="#FDD835"/>
<path d="M70.48 45.02C71.76 44.46 74.14 43.68 77.57 43.55C77.79 43.54 78 43.54 78.2 43.54C81.29 43.54 83.18 44.38 84.15 44.97L77.21 52.43L70.48 45.02V45.02Z" fill="#E53935"/>
<path d="M78.21 44.58C80.1 44.58 81.49 44.92 82.46 45.29L77.23 50.91L72.28 45.46C73.55 45.06 75.34 44.67 77.61 44.59C77.82 44.58 78.01 44.58 78.21 44.58M78.21 42.51C77.99 42.51 77.77 42.51 77.54 42.52C71.77 42.73 68.81 44.72 68.81 44.72L77.21 53.97L85.69 44.85C85.68 44.85 83.5 42.51 78.21 42.51V42.51Z" fill="#FDD835"/>
<path opacity="0.42" d="M68.81 44.72C68.81 44.72 71.77 42.73 77.54 42.52C83.31 42.31 85.69 44.85 85.69 44.85L77.21 53.97L68.81 44.72V44.72Z" fill="url(#paint8_linear_18_183)"/>
<path d="M57.86 97.6C57.86 97.6 56.25 107.26 52.28 113.58C50.34 116.15 47.18 118.26 45.54 122.67C44.79 124.7 49.17 126.63 52.58 124.76C54.63 123.63 57.73 116.73 57.73 116.73C60.47 111.75 68.63 103.81 68.63 103.81C67.06 96.52 57.86 97.6 57.86 97.6V97.6Z" fill="url(#paint9_linear_18_183)"/>
<path d="M53.4 37.12C53.4 37.12 59.09 29.94 69.25 31.99C76.8 33.51 75.21 38.36 75.21 38.36C75.21 38.36 71.4 38.39 67.97 37.6C64.5 36.8 61.41 35.19 59.57 35.38L53.4 37.12V37.12Z" fill="#ED4132"/>
<path d="M75.21 38.37C75.21 38.37 75.68 33.46 79 32.27C82.32 31.08 89.76 29.98 89.76 29.98C89.76 29.98 87.43 34.54 85.63 35.98C81.83 39.01 75.21 38.37 75.21 38.37V38.37Z" fill="#ED4132"/>
<path opacity="0.4" d="M57.13 40.53C57.13 40.53 60.39 37.59 65.35 38.78C72.49 40.49 75.21 38.37 75.21 38.37C75.21 38.37 80.46 40.26 85.43 37.87C88.84 36.23 89.77 29.98 89.77 29.98L88.6 31.3C88.6 31.3 84.22 36.07 79.86 37.36C76.67 38.31 75.22 38.37 75.22 38.37C75.22 38.37 63.46 34.34 60.78 35.46C58.1 36.58 57.13 40.53 57.13 40.53V40.53Z" fill="#212121"/>
<path d="M92.68 24.92C92.54 23.99 90.77 9.78004 87.45 9.04004C87.45 9.04004 85.69 9.06004 83.89 9.22004C82.47 9.27004 81.53 8.89004 81.26 8.00004C80.93 7.32004 81.27 5.80004 81.84 4.10004C82.41 2.39004 83.43 2.18004 84.24 2.16004C85.81 2.12004 88.49 3.71004 92.17 6.89004C99.25 13.01 103.12 22.24 103.12 22.24C102.99 22.24 98.43 28.47 92.68 24.92V24.92Z" fill="url(#paint10_linear_18_183)"/>
<path d="M74.97 31.28L71.75 31.37L71.84 33.87C71.84 37.03 75.2 38.37 75.2 38.37C75.2 38.37 78.27 36.72 78.27 33.82L78.18 31.2L74.97 31.28V31.28ZM82.47 21.53L80.4 21.57L69.19 21.8L67.12 21.84C65.47 21.87 64.14 23.34 64.18 25.11C64.22 26.88 65.6 28.29 67.25 28.25L69.32 28.21L80.53 27.98L82.6 27.94C84.25 27.91 85.58 26.44 85.54 24.67C85.51 22.91 84.13 21.5 82.47 21.53Z" fill="#EDC391"/>
<path d="M74.53 10.3499C69.64 10.4499 65.22 15.7699 65.38 23.2899C65.53 30.7699 70.27 34.3799 75.03 34.2799C79.78 34.1799 84.37 30.3899 84.22 22.8999C84.06 15.3799 79.42 10.2499 74.53 10.3499V10.3499Z" fill="#F9DDBD"/>
<path d="M70.4093 25.84C71.1713 25.8248 71.7762 25.1723 71.7604 24.3827C71.7446 23.5931 71.1141 22.9653 70.3521 22.9806C69.5901 22.9958 68.9852 23.6483 69.001 24.4379C69.0168 25.2275 69.6473 25.8553 70.4093 25.84Z" fill="#312D2D"/>
<path d="M79.6394 25.6501C80.4014 25.6348 81.0063 24.9824 80.9905 24.1927C80.9747 23.4031 80.3442 22.7754 79.5822 22.7906C78.8202 22.8059 78.2153 23.4583 78.2311 24.2479C78.2468 25.0376 78.8774 25.6653 79.6394 25.6501Z" fill="#312D2D"/>
<path d="M76.07 26.8399C76.0413 26.8286 76.0109 26.8218 75.98 26.8199L74 26.8599C73.97 26.8599 73.94 26.8699 73.91 26.8799C73.73 26.9599 73.64 27.1399 73.73 27.3399C73.82 27.5399 74.23 28.0899 75.02 28.0699C75.82 28.0499 76.2 27.4899 76.28 27.2899C76.36 27.0899 76.25 26.9099 76.07 26.8399Z" fill="#DBA689"/>
<path d="M77.38 29.42C76.5 29.98 73.55 30.06 72.64 29.55C72.12 29.26 71.6 29.74 71.83 30.2C72.05 30.65 73.69 31.68 75.08 31.64C76.47 31.6 78.03 30.49 78.22 30.02C78.42 29.56 77.89 29.1 77.38 29.42V29.42Z" fill="#444444"/>
<path d="M72.36 21.9C72.07 21.47 71.41 20.85 70.17 20.88C68.93 20.91 68.31 21.58 68.05 22.03C67.93 22.23 67.97 22.45 68.06 22.59C68.14 22.71 68.38 22.83 68.63 22.71C68.88 22.59 69.38 22.27 70.21 22.24C71.05 22.22 71.56 22.52 71.82 22.62C72.08 22.72 72.31 22.59 72.38 22.46C72.47 22.31 72.49 22.09 72.36 21.9ZM81.66 21.62C81.37 21.19 80.71 20.57 79.47 20.6C78.23 20.64 77.61 21.3 77.35 21.75C77.23 21.95 77.27 22.17 77.36 22.31C77.44 22.43 77.68 22.55 77.93 22.43C78.18 22.31 78.68 21.99 79.51 21.96C80.35 21.94 80.86 22.24 81.12 22.34C81.38 22.44 81.61 22.31 81.68 22.18C81.7282 22.0938 81.7518 21.996 81.7483 21.8973C81.7448 21.7985 81.7143 21.7026 81.66 21.62V21.62Z" fill="#454140"/>
<path d="M74.49 8.81006C74.48 8.81006 74.48 8.81006 74.49 8.81006C74.48 8.81006 74.48 8.81006 74.49 8.81006C61.7 9.21006 64.7 23.7401 64.7 23.7401C64.7 23.7401 65.31 25.2301 65.59 25.8901C65.63 25.9801 65.77 25.9701 65.79 25.8701C66.03 24.6401 66.9 20.2901 67.36 18.9601C67.63 18.1801 68.42 17.7101 69.24 17.8301C70.5 18.0201 72.5 18.2501 74.7 18.2001H74.74C76.94 18.1401 78.93 17.8101 80.18 17.5501C80.99 17.3801 81.81 17.8101 82.12 18.5801C82.65 19.8801 83.73 24.1601 84.04 25.3901C84.07 25.4901 84.21 25.5001 84.24 25.4001L85.02 23.2201C85.03 23.2101 87.27 8.55006 74.49 8.81006V8.81006Z" fill="#312D2D"/>
<path d="M85.03 23.21C85.03 23.21 87.27 8.53996 74.48 8.80996L73.9 8.83996C73.52 8.86996 73.15 8.89996 72.8 8.95996H72.79C72.76 8.95996 72.74 8.96996 72.72 8.96996C62 10.6 64.71 23.74 64.71 23.74L65.6 25.88C65.64 25.97 65.78 25.96 65.8 25.86C66.04 24.62 66.91 20.28 67.37 18.96C67.64 18.18 68.43 17.71 69.25 17.83C70.51 18.02 72.51 18.25 74.71 18.2H74.75C76.95 18.14 78.94 17.81 80.19 17.55C81 17.38 81.82 17.81 82.13 18.58C82.66 19.88 83.75 24.19 84.06 25.4C84.09 25.5 84.22 25.51 84.26 25.41C84.49 24.74 85.03 23.21 85.03 23.21V23.21Z" fill="url(#paint11_radial_18_183)"/>
<defs>
<linearGradient id="paint0_linear_18_183" x1="79.567" y1="49.038" x2="51.086" y2="87.186" gradientUnits="userSpaceOnUse">
<stop stop-color="#A52714"/>
<stop offset="0.529" stop-color="#D23F31"/>
<stop offset="1" stop-color="#ED4132"/>
</linearGradient>
<radialGradient id="paint1_radial_18_183" cx="0" cy="0" r="1" gradientUnits="userSpaceOnUse" gradientTransform="translate(74.8746 63.3727) rotate(20.5788) scale(18.5792 36.0031)">
<stop stop-color="#212121"/>
<stop offset="0.999" stop-color="#212121" stop-opacity="0"/>
</radialGradient>
<linearGradient id="paint2_linear_18_183" x1="44.406" y1="55.1019" x2="59.099" y2="80.4699" gradientUnits="userSpaceOnUse">
<stop stop-color="#212121"/>
<stop offset="0.999" stop-color="#212121" stop-opacity="0"/>
</linearGradient>
<linearGradient id="paint3_linear_18_183" x1="76.007" y1="41.42" x2="75.835" y2="61.098" gradientUnits="userSpaceOnUse">
<stop stop-color="#42A5F5"/>
<stop offset="1" stop-color="#1E88E5"/>
</linearGradient>
<linearGradient id="paint4_linear_18_183" x1="50.366" y1="52.6259" x2="43.808" y2="38.3929" gradientUnits="userSpaceOnUse">
<stop stop-color="#A52714"/>
<stop offset="0.529" stop-color="#D23F31"/>
<stop offset="1" stop-color="#DB4437"/>
</linearGradient>
<linearGradient id="paint5_linear_18_183" x1="55.129" y1="84.0279" x2="50.129" y2="91.7779" gradientUnits="userSpaceOnUse">
<stop offset="0.001" stop-color="#851F10"/>
<stop offset="0.841" stop-color="#A52714"/>
</linearGradient>
<linearGradient id="paint6_linear_18_183" x1="69.79" y1="72.0729" x2="60.641" y2="92.6139" gradientUnits="userSpaceOnUse">
<stop stop-color="#42A5F5"/>
<stop offset="1" stop-color="#1E88E5"/>
</linearGradient>
<linearGradient id="paint7_linear_18_183" x1="62.701" y1="62.449" x2="84.321" y2="67.174" gradientUnits="userSpaceOnUse">
<stop stop-color="#D32F2F"/>
<stop offset="0.23" stop-color="#F44336"/>
<stop offset="0.742" stop-color="#F44336"/>
<stop offset="1" stop-color="#D32F2F"/>
</linearGradient>
<linearGradient id="paint8_linear_18_183" x1="77.247" y1="44.743" x2="77.247" y2="54.598" gradientUnits="userSpaceOnUse">
<stop stop-color="#0D47A1" stop-opacity="0"/>
<stop offset="1" stop-color="#0D47A1"/>
</linearGradient>
<linearGradient id="paint9_linear_18_183" x1="66.098" y1="100.377" x2="43.784" y2="122.691" gradientUnits="userSpaceOnUse">
<stop stop-color="#A52714"/>
<stop offset="0.529" stop-color="#D23F31"/>
<stop offset="1" stop-color="#ED4132"/>
</linearGradient>
<linearGradient id="paint10_linear_18_183" x1="98.368" y1="23.916" x2="84.559" y2="3.03004" gradientUnits="userSpaceOnUse">
<stop stop-color="#A52714"/>
<stop offset="0.529" stop-color="#D23F31"/>
<stop offset="1" stop-color="#DB4437"/>
</linearGradient>
<radialGradient id="paint11_radial_18_183" cx="0" cy="0" r="1" gradientUnits="userSpaceOnUse" gradientTransform="translate(74.7957 20.9247) rotate(-1.4898) scale(10.7214 12.0952)">
<stop offset="0.794" stop-color="#454140" stop-opacity="0"/>
<stop offset="1" stop-color="#454140"/>
</radialGradient>
</defs>
</svg>
