<svg width="128" height="128" viewBox="0 0 128 128" fill="none" xmlns="http://www.w3.org/2000/svg">
<path d="M3.77 71.73L20.11 55.63L47.93 50.7L45.18 65.26L7.57 76.82L5.14 75.7699L3.77 71.73Z" fill="#CA2C31"/>
<path d="M22.94 59.7599L5.2 75.8799L18.25 82.2399L38.06 72.1299V67.3599L42.11 56.4399L22.94 59.7599ZM64.92 88.1499L56.35 91.8699L48.26 109.02C48.26 109.02 55.38 124.79 55.7 124.79C56.02 124.79 60.07 125.11 60.07 125.11L74.47 109.01L78.11 81.5099L64.92 88.1499V88.1499Z" fill="#A02422"/>
<path d="M56.5 100.84C56.5 100.84 61.27 99.87 64.67 98.25C68.07 96.63 72.27 94.21 72.27 94.21L70.73 107.64L55.68 124.77C55.68 124.77 55.09 124.04 52.59 118.6C50.6 114.26 49.91 112.71 49.91 112.71L56.5 100.84V100.84Z" fill="#CA2C31"/>
<path d="M31.58 80.66C31.58 80.66 25.84 80.18 19.55 88.13C13.81 95.39 11.12 107.21 10.08 110.25C9.04 113.29 6.55 113.91 7.38 115.3C8.21 116.69 11.8 116.61 16.23 116.06C20.66 115.51 24.46 114.12 24.46 114.12C24.46 114.12 24.27 114.6 23.63 115.64C23.4 116.01 22.6 116.54 22.66 117.09C22.8 118.4 34.02 118.43 42.98 109.21C52.66 99.26 47.96 91.1 47.96 91.1L31.58 80.66Z" fill="#F7D74D"/>
<path d="M33.31 85.29C33.31 85.29 27.12 85.62 22 93.57C16.88 101.52 14.5 110.73 14.99 111.35C15.47 111.97 25.01 108.52 27.3 109.21C28.87 109.69 28.06 111.28 28.48 111.7C28.83 112.05 32.97 112.64 39.67 105.38C46.38 98.12 44.79 87.92 44.79 87.92L33.31 85.29V85.29Z" fill="#FBF0B4"/>
<path d="M36.35 74.4399C36.35 74.4399 33.24 77.2099 32.13 78.7999C31.02 80.3899 31.02 80.5299 31.09 81.0099C31.16 81.4899 32.31 86.7599 37.1 91.3799C42.98 97.0499 48.23 97.8099 48.99 97.8099C49.75 97.8099 54.8 92.1399 54.8 92.1399L36.35 74.4399V74.4399Z" fill="#858585"/>
<path d="M50.1 91.2401C50.1 91.2401 55.14 94.5501 63.59 91.7101C75.14 87.8301 83.61 79.1501 94.1 68.1901C104.22 57.6101 112.71 44.48 112.71 44.48L106.76 24.55L50.1 91.2401Z" fill="#437687"/>
<path d="M67.99 80.33L69.38 76.01L72.86 76.5C72.86 76.5 75.51 77.75 77.46 78.66C79.41 79.57 81.92 80.26 81.92 80.26L76.97 84.44C76.97 84.44 74.27 83.42 72.3 82.56C70.08 81.59 67.99 80.33 67.99 80.33V80.33Z" fill="#3F545F"/>
<path d="M84.32 16.14C84.32 16.14 74.7 21.72 60.91 34.77C48.48 46.53 39.27 57.17 37.04 66.22C35.18 73.8 36.17 78.4 40.4 83.37C44.87 88.63 50.11 91.24 50.11 91.24C50.11 91.24 54.05 91.3 70.49 78.65C91 62.86 107.43 36.42 107.43 36.42L84.32 16.14Z" fill="#8DAFBF"/>
<path d="M104.18 41.84C104.18 41.84 95.81 38.2699 89.84 29.9399C83.91 21.6699 84.38 16.0799 84.38 16.0799C84.38 16.0799 89.34 12.1899 100.49 7.73995C107.99 4.74995 118.2 3.21995 121.56 5.70995C124.92 8.19995 119.26 20.6899 119.26 20.6899L108.95 40.65L104.18 41.84Z" fill="#D83F22"/>
<path d="M68.17 80.4C68.17 80.4 60.94 76.71 56.34 71.46C47.64 61.55 45.84 50.67 45.84 50.67L50.21 45.54C50.21 45.54 51.3 57.1 60.63 67.09C66.71 73.6 73.06 76.58 73.06 76.58C73.06 76.58 71.79 77.65 70.43 78.69C69.56 79.36 68.17 80.4 68.17 80.4V80.4Z" fill="#6896A5"/>
<path d="M112.71 44.48C112.71 44.48 117.05 39.25 121.16 27.46C126.9 11.02 121.9 6.04004 121.9 6.04004C121.9 6.04004 120.21 13.86 114.34 24.73C109.63 33.44 103.93 41.73 103.93 41.73C103.93 41.73 107.07 43.14 108.77 43.63C110.91 44.25 112.71 44.48 112.71 44.48Z" fill="#A02422"/>
<path d="M39.81 69.66C41.11 70.9 43.08 69.6 44.37 66.56C45.67 63.52 45.65 61.82 44.65 61.1C43.41 60.2 41.33 62.17 40.42 63.92C39.42 65.86 38.83 68.72 39.81 69.66ZM84.95 20.13C84.95 20.13 77.34 25.6 69.22 33.04C61.77 39.87 56.83 45.21 56.15 46.45C55.43 47.78 55.42 49.66 55.98 50.62C56.54 51.58 57.78 52.08 58.91 51.24C60.04 50.39 68.09 41.49 75.36 35.13C82.01 29.31 87.14 25.62 87.14 25.62C87.14 25.62 89.22 21.94 88.88 21.1C88.54 20.25 84.95 20.13 84.95 20.13V20.13Z" fill="#B3E1EE"/>
<path d="M84.95 20.1301C84.95 20.1301 90.57 15.8201 96.69 12.7901C102.38 9.97005 108.04 7.62005 109.06 9.66005C110.03 11.6001 103.69 14.2401 98.11 17.8001C92.53 21.3601 87.16 25.6101 87.16 25.6101C87.16 25.6101 86.34 24.1101 85.81 22.7201C85.4738 21.874 85.1867 21.0092 84.95 20.1301V20.1301Z" fill="#ED6A65"/>
<path d="M89.59 39.25C84.02 34.12 76.27 35.5 72.45 40.06C68.53 44.76 68.82 51.94 73.45 56.26C77.66 60.18 85.49 61.07 90.21 55.57C94.41 50.69 94.15 43.44 89.59 39.25V39.25Z" fill="#E1E1E1"/>
<path d="M75.33 41.8699C72.02 45.1199 72.2 51.56 76.14 54.5C79.58 57.07 84.46 56.94 87.52 53.81C90.58 50.68 90.58 44.9899 87.71 42.0499C84.41 38.6799 79.12 38.1499 75.33 41.8699V41.8699Z" fill="#3F545F"/>
<path d="M50 76.89C50 76.89 56.19 70.61 56.87 71.29C57.55 71.97 57.46 75.78 54.5 80.02C51.53 84.26 45 91.81 39.83 96.9C34.73 101.91 27.54 107.64 26.86 107.54C26.33 107.46 24.18 106.39 23.32 105.35C22.48 104.32 24.99 99.45 26 97.84C27.02 96.23 50 76.89 50 76.89Z" fill="#A02524"/>
<path d="M21.23 101.85C21.15 103.29 23.35 105.39 23.35 105.39L56.87 71.3C56.87 71.3 55.3 69.53 50.68 72.4C46.02 75.3 41.94 78.78 35.92 84.61C27.53 92.75 21.31 100.41 21.23 101.85V101.85Z" fill="#CA2C31"/>
<path d="M19.06 36.95C17.95 38.06 17.9 39.84 19.14 40.86C20.24 41.77 22.03 41.18 22.7 40.36C23.37 39.54 23.29 37.76 22.4 36.88C21.51 35.99 19.74 36.28 19.06 36.95V36.95Z" fill="white"/>
<path opacity="0.5" d="M41.02 35.65C40.18 36.58 40.45 37.96 41.23 38.47C42.01 38.98 43.18 38.93 43.75 38.23C44.26 37.6 44.32 36.34 43.54 35.56C42.86 34.89 41.56 35.05 41.02 35.65Z" fill="white"/>
<path d="M55.55 11.89C55.55 11.89 56.77 8.40997 57.49 8.36997C58.22 8.32997 59.27 11.85 59.27 11.85C59.27 11.85 62.88 11.89 63.12 12.42C63.43 13.1 60.81 15.38 60.81 15.38C60.81 15.38 61.66 18.78 61.26 19.19C60.81 19.64 57.7 17.85 57.7 17.85C57.7 17.85 54.5 20.08 53.81 19.47C53.21 18.94 54.46 15.34 54.46 15.34C54.46 15.34 51.46 13.15 51.62 12.54C51.85 11.68 55.55 11.89 55.55 11.89V11.89ZM97.01 95.33C98.22 96 99.74 95.62 100.3 94.33C100.81 93.18 99.87 91.81 99.02 91.44C98.17 91.07 96.68 91.56 96.14 92.53C95.61 93.49 96.28 94.93 97.01 95.33V95.33ZM114.19 65.84C113.5 64.77 112.01 64.42 111.04 65.28C110.1 66.12 110.33 67.44 110.86 68.11C111.39 68.78 112.81 69.03 113.67 68.48C114.53 67.93 114.61 66.48 114.19 65.84V65.84Z" fill="white"/>
</svg>
